<svg width="39" height="31" viewBox="0 0 39 31" fill="none" xmlns="http://www.w3.org/2000/svg">
<path d="M19.0471 0C24.69 0 30.335 0 35.978 0C37.4343 0 38.0327 0.608285 38.0347 2.07649C38.0347 9.08069 38.0367 16.0869 38.0347 23.0911C38.0347 24.4939 37.4086 25.118 36.0018 25.12C24.69 25.122 13.3783 25.122 2.06659 25.12C0.634043 25.12 0 24.48 0 23.0356C0 16.0314 0 9.02521 0 2.02101C0 0.626118 0.630081 0.00198139 2.04083 0.00198139C7.71155 0 13.3783 0 19.0471 0ZM2.08838 2.0547C2.08838 8.37928 2.08838 14.6543 2.08838 20.9393C13.4061 20.9393 24.6762 20.9393 35.9304 20.9393C35.9304 14.6068 35.9304 8.33569 35.9304 2.0547C24.6147 2.0547 13.3625 2.0547 2.08838 2.0547ZM18.3516 23.9173C18.4725 23.9193 18.5933 23.9232 18.7122 23.9252C18.9123 23.6459 19.2947 23.3427 19.263 23.095C19.2254 22.8097 18.8212 22.57 18.5775 22.3104C18.3258 22.5561 17.9177 22.776 17.8681 23.0574C17.8226 23.307 18.1752 23.628 18.3516 23.9173Z" fill="#009ED9"/>
<path d="M18.9896 30.6243C16.39 30.6243 13.7904 30.6302 11.1889 30.6164C10.9412 30.6144 10.5132 30.5371 10.4815 30.4162C10.4122 30.1388 10.43 29.7089 10.6064 29.5306C10.9115 29.2234 11.3969 28.8232 11.7476 28.8747C13.3803 29.1145 14.1174 28.0782 14.6444 26.8874C14.9991 26.0849 15.4548 25.8947 16.2632 25.9165C18.2684 25.97 20.2735 25.9462 22.2787 25.9244C22.7324 25.9185 23.0098 26.0215 23.1743 26.4812C23.3051 26.8478 23.529 27.1866 23.741 27.5195C24.2918 28.3853 24.9179 29.0808 26.1226 28.849C26.7685 28.7261 27.2678 29.0867 27.5393 29.693C27.8246 30.3291 27.6383 30.6183 26.9369 30.6203C24.2878 30.6263 21.6387 30.6243 18.9896 30.6243Z" fill="#009ED9"/>
<path d="M19.0233 4.76324C21.6744 4.83457 23.9946 5.82329 26.0572 7.39452C27.2718 8.31983 28.3873 9.38185 29.4929 10.4399C30.1428 11.0621 30.1904 11.8051 29.6197 12.4332C27.3114 14.9812 24.6801 17.0736 21.2781 17.9632C18.6785 18.6428 16.2355 18.0881 13.9113 16.8556C11.8566 15.7659 10.0991 14.2937 8.53383 12.5877C7.91365 11.9141 7.83836 11.1988 8.40504 10.5846C10.7867 8.01073 13.4496 5.84508 16.9745 5.02479C17.4065 4.92374 17.8483 4.85835 18.2862 4.79693C18.5299 4.76721 18.7796 4.77513 19.0233 4.76324ZM19.0471 6.2374C16.0888 6.23145 13.6874 8.61902 13.7132 11.5376C13.7389 14.4443 16.1186 16.8002 19.0253 16.7982C21.926 16.7962 24.3096 14.4205 24.3215 11.5198C24.3314 8.62298 21.9577 6.24532 19.0471 6.2374Z" fill="#009ED9"/>
<path d="M19.8416 8.73195C19.2016 9.67113 19.1659 10.2398 19.6732 10.7886C20.1804 11.3355 20.8501 11.3058 21.7893 10.6935C22.2034 11.9438 21.7299 13.2594 20.6084 13.9767C19.4909 14.69 18.0148 14.5711 17.036 13.6874C16.0631 12.8116 15.7996 11.3295 16.4059 10.1566C17.0399 8.92613 18.3318 8.3753 19.8416 8.73195Z" fill="#009ED9"/>
</svg>
